<?xml version="1.0" encoding="UTF-8" standalone="no"?>
<svg width="104px" height="139px" viewBox="0 0 104 139" version="1.1" xmlns="http://www.w3.org/2000/svg" xmlns:xlink="http://www.w3.org/1999/xlink" xmlns:sketch="http://www.bohemiancoding.com/sketch/ns">
    <!-- Generator: Sketch 3.4.2 (15857) - http://www.bohemiancoding.com/sketch -->
    <title>Shape</title>
    <desc>Created with Sketch.</desc>
    <defs></defs>
    <g id="Welcome" stroke="none" stroke-width="1" fill="none" fill-rule="evenodd" sketch:type="MSPage">
        <g id="Mobile-Portrait" sketch:type="MSArtboardGroup" transform="translate(-15.000000, -14.000000)" fill="#0B0101">
            <path d="M75.7019518,46.881427 C75.9782402,35.1760143 85.5555966,25.7681158 97.3272766,25.7681158 C109.27283,25.7681158 118.960263,35.4555491 118.960263,47.4011022 C118.960263,59.3466553 109.27283,69.0340886 97.3272766,69.0340886 C95.6627094,69.0340886 94.4471075,68.8478694 93.5752437,68.5063315 C90.9584114,89.9920318 91.9631186,113.458604 91.637048,134.092664 C91.6066742,136.019053 91.5996289,153.001144 88.2822988,153 L72.6801515,152.994621 C71.3472696,152.994124 71.6355695,152.994124 70.3026876,152.994621 L54.7005403,153 C51.3832129,153.001169 51.3761688,136.019047 51.345791,134.092664 C50.9168152,106.948113 52.7926595,74.9003543 45.6939449,48.9108789 C45.441044,47.9846061 45.7015165,46.8814413 46.9558768,46.8814413 L55.6814908,46.8814413 L47.6033409,20.5953354 C46.9904284,18.1258464 46.0668429,16.96614 43.4369172,17.9439515 L15.9545693,25.7285013 L15,22.3853588 L43.5163237,14.3595823 C47.7152863,13.1423452 49.5119421,14.965365 51.1885792,20.5953983 L59.2667291,46.8815042 L71.4913595,46.8815042 L75.7018661,46.8815042 L75.7019518,46.881427 Z M67.1838305,58.9911904 C68.3945153,58.9911904 69.3763634,59.9730328 69.3763634,61.1837232 C69.3763634,62.394408 68.394521,63.3762561 67.1838305,63.3762561 C65.9731458,63.3762561 64.9912977,62.3944137 64.9912977,61.1837232 C64.9912977,59.9730385 65.9731401,58.9911904 67.1838305,58.9911904 L67.1838305,58.9911904 Z M67.4596214,67.3641983 C68.3474775,67.3641983 69.0674754,68.0841963 69.0674754,68.9720523 C69.0674754,69.8599084 68.3474775,70.5799063 67.4596214,70.5799063 C66.5717654,70.5799063 65.8517674,69.8599084 65.8517674,68.9720523 C65.8517674,68.0841963 66.5717654,67.3641983 67.4596214,67.3641983 L67.4596214,67.3641983 Z M65.2532919,75.1828823 C65.8990065,75.1828823 66.4226439,75.7065169 66.4226439,76.3522343 C66.4226439,76.9979488 65.8990093,77.5215863 65.2532919,77.5215863 C64.6075774,77.5215863 64.0839399,76.9979517 64.0839399,76.3522343 C64.0839399,75.7065197 64.6075745,75.1828823 65.2532919,75.1828823 L65.2532919,75.1828823 Z M63.8743374,65.8721263 C64.3586239,65.8721263 64.7513471,66.2648524 64.7513471,66.749136 C64.7513471,67.2334224 64.358621,67.6261457 63.8743374,67.6261457 C63.3900509,67.6261457 62.9973277,67.2334196 62.9973277,66.749136 C62.9973277,66.2648495 63.3900538,65.8721263 63.8743374,65.8721263 L63.8743374,65.8721263 Z M60.8406329,70.8832893 C61.7284604,70.8832893 62.4484869,71.6033159 62.4484869,72.4911433 C62.4484869,73.3789708 61.7284604,74.0989973 60.8406329,74.0989973 C59.9528055,74.0989973 59.2327789,73.3789708 59.2327789,72.4911433 C59.2327789,71.6033159 59.9528055,70.8832893 60.8406329,70.8832893 L60.8406329,70.8832893 Z M66.3571885,51.5721743 C66.841475,51.5721743 67.2341983,51.9649004 67.2341983,52.449184 C67.2341983,52.9334705 66.8414721,53.3261937 66.3571885,53.3261937 C65.8729021,53.3261937 65.4801788,52.9334676 65.4801788,52.449184 C65.4801788,51.9648975 65.8729049,51.5721743 66.3571885,51.5721743 L66.3571885,51.5721743 Z M63.323484,55.0195663 C63.8077705,55.0195663 64.2004938,55.4122924 64.2004938,55.896576 C64.2004938,56.3808625 63.8077677,56.7735857 63.323484,56.7735857 C62.8391976,56.7735857 62.4464743,56.3808596 62.4464743,55.896576 C62.4464743,55.4122895 62.8392004,55.0195663 63.323484,55.0195663 L63.323484,55.0195663 Z M61.9445295,82.6952272 C62.832357,82.6952272 63.5523835,83.4152537 63.5523835,84.3030812 C63.5523835,85.1909086 62.832357,85.9109352 61.9445295,85.9109352 C61.0567021,85.9109352 60.3366755,85.1909086 60.3366755,84.3030812 C60.3366755,83.4152537 61.0567021,82.6952272 61.9445295,82.6952272 L61.9445295,82.6952272 Z M63.4049316,49.6060023 C63.4049316,50.816687 62.4230892,51.7985352 61.2123988,51.7985352 C60.001714,51.7985352 59.0198659,50.8166927 59.0198659,49.6060023 L50.9333111,49.6060023 C49.8821825,49.6060023 49.6640093,50.613837 49.8759846,51.4598915 C55.8238609,75.2001666 54.2521308,104.474019 54.6116152,129.269368 C54.6369609,131.029242 54.6428368,146.54152 57.4224409,146.54049 L70.4953385,146.535462 C71.6122427,146.535141 71.3705986,146.535141 72.4875029,146.535462 L85.5604005,146.54049 C88.3400022,146.541514 88.3458799,131.029253 88.3712262,129.269368 C88.7307134,104.474133 87.158992,75.200281 93.1068568,51.4598915 C93.318831,50.613837 93.1006592,49.6060023 92.0495303,49.6060023 L71.4914007,49.6060023 L63.4049031,49.6060023 L63.4049316,49.6060023 Z M65.943501,82.0471341 C66.4277875,82.0471341 66.8205108,82.4398602 66.8205108,82.9241438 C66.8205108,83.4084303 66.4277847,83.8011535 65.943501,83.8011535 C65.4592146,83.8011535 65.0664913,83.4084274 65.0664913,82.9241438 C65.0664913,82.4398573 65.4592174,82.0471341 65.943501,82.0471341 L65.943501,82.0471341 Z M64.2887568,87.9766568 C64.7730432,87.9766568 65.1657665,88.3693829 65.1657665,88.8536665 C65.1657665,89.337953 64.7730404,89.7306762 64.2887568,89.7306762 C63.8044703,89.7306762 63.4117471,89.3379501 63.4117471,88.8536665 C63.4117471,88.36938 63.8044732,87.9766568 64.2887568,87.9766568 L64.2887568,87.9766568 Z M59.8760978,60.3726949 C60.6024995,60.3726949 61.1916152,60.9618107 61.1916152,61.6882124 C61.1916152,62.4146141 60.6024995,63.0037298 59.8760978,63.0037298 C59.1496961,63.0037298 58.5605803,62.4146141 58.5605803,61.6882124 C58.5605803,60.9618107 59.1496961,60.3726949 59.8760978,60.3726949 L59.8760978,60.3726949 Z M93.7510962,67.1075454 C93.800355,66.7277989 93.8510466,66.3488735 93.9027025,65.9704409 C96.3174681,66.5902545 98.6270522,66.4535575 101.827163,65.712541 C102.510734,65.5761653 102.638866,65.0792509 102.486674,64.5327543 C100.998878,59.5867836 99.222343,54.487226 97.5322867,49.1577111 C97.4824432,49.0161616 97.3893632,48.9269986 97.2902898,48.9055701 C97.5407939,47.9803779 97.2790056,46.8813641 96.0269801,46.8813641 L95.8306756,46.8813641 C95.9382265,46.7659784 95.8980596,46.5779177 95.7208154,46.4454013 C91.1397094,43.2401852 86.8038896,40.0211324 82.5283621,37.1235531 C82.0522908,36.8150494 81.5397958,36.7888558 81.2054175,37.400455 C79.2232247,40.776045 78.4377142,43.2008736 78.5917471,46.3606633 C78.618496,46.6241178 78.7668574,46.7877975 79.0008147,46.8813453 L77.3099065,46.8813453 C77.5857854,36.0638801 86.4434732,27.3759453 97.32732,27.3759453 C108.38504,27.3759453 117.352452,36.3433577 117.352452,47.4010776 C117.352452,58.4587975 108.384983,67.42621 97.32732,67.42621 C96.1067552,67.42621 94.911531,67.3168466 93.7510985,67.107562 L93.7510962,67.1075454 Z M104.317443,64.9087289 C107.352754,64.0171278 109.385434,62.4792576 111.923431,59.4989386 C112.391405,58.9823492 112.198462,58.506833 111.750777,58.1583951 C107.610403,55.0707848 103.146605,52.0317286 98.6153283,48.7563857 C98.3390988,48.5696406 98.0459423,48.7178849 98.1617666,49.0925445 C99.7216211,54.4345123 101.641194,59.0443609 103.34921,64.0284739 C103.556039,64.6373554 103.84557,65.0208138 104.317461,64.9087026 L104.317443,64.9087289 Z M90.3372724,29.837317 C87.3019612,30.7289181 85.2692818,32.2667883 82.7312842,35.2471073 C82.2633101,35.7636967 82.4562531,36.2392129 82.9039388,36.5876508 C87.0443129,39.6752611 91.5081104,42.7143173 96.0393873,45.9896601 C96.3156167,46.1764053 96.6087732,46.028161 96.492949,45.6535014 C94.9330944,40.3115335 93.0135211,35.701685 91.3055057,30.717572 C91.0986768,30.1086904 90.8091459,29.725232 90.3372541,29.8373433 L90.3372724,29.837317 Z M104.222931,29.837317 C107.258242,30.7289181 109.290921,32.2667883 111.828919,35.2471073 C112.296893,35.7636967 112.10395,36.2392129 111.656264,36.5876508 C107.51589,39.6752611 103.052093,42.7143173 98.5208159,45.9896601 C98.2445864,46.1764053 97.9514299,46.028161 98.0672542,45.6535014 C99.6271087,40.3115335 101.546682,35.701685 103.254697,30.717572 C103.461526,30.1086904 103.751057,29.725232 104.222949,29.8373433 L104.222931,29.837317 Z M116.361054,48.3672897 C116.515086,51.5271079 115.729576,53.9519309 113.747383,57.327498 C113.413008,57.9390955 112.900511,57.912903 112.424438,57.6043999 C108.148917,54.7068092 103.813063,51.4877392 99.2319852,48.2825517 C98.9649349,48.0829144 99.0087273,47.7573384 99.4006638,47.7437739 C104.958672,47.4638898 109.943225,47.7640621 115.21179,47.7415814 C115.854789,47.7371086 116.312062,47.8847388 116.361056,48.3672728 L116.361054,48.3672897 Z M116.361054,46.360717 C116.515086,43.2008988 115.729576,40.7760759 113.747383,37.4005087 C113.413008,36.7889113 112.900511,36.8151037 112.424438,37.1236069 C108.148917,40.0211975 103.813063,43.2402675 99.2319852,46.4454551 C98.9649349,46.6450923 99.0087273,46.9706683 99.4006638,46.9842328 C104.958672,47.264117 109.943225,46.9639446 115.21179,46.9864254 C115.854789,46.9908981 116.312062,46.843268 116.361056,46.360734 L116.361054,46.360717 Z M92.4953909,29.1982863 C95.4648406,28.1071972 98.0136103,28.1323376 101.827245,29.0154292 C102.510816,29.1518049 102.638948,29.6487193 102.486756,30.1952158 C100.998961,35.1411865 99.2224254,40.2407441 97.532369,45.570259 C97.4216317,45.8847851 97.0978385,45.9402415 96.9678071,45.570259 C95.0400747,40.3497564 93.8372517,35.5032324 92.2416448,30.482012 C92.0452523,29.8697113 92.0495205,29.3892248 92.4953937,29.1983018 L92.4953909,29.1982863 Z" id="Shape" sketch:type="MSShapeGroup"></path>
        </g>
    </g>
</svg>